<?xml version="1.0" encoding="UTF-8" standalone="no"?>
<!-- Created with Inkscape (http://www.inkscape.org/) -->

<svg
   xmlns:dc="http://purl.org/dc/elements/1.1/"
   xmlns:cc="http://creativecommons.org/ns#"
   xmlns:rdf="http://www.w3.org/1999/02/22-rdf-syntax-ns#"
   xmlns:svg="http://www.w3.org/2000/svg"
   xmlns="http://www.w3.org/2000/svg"
   xmlns:sodipodi="http://sodipodi.sourceforge.net/DTD/sodipodi-0.dtd"
   xmlns:inkscape="http://www.inkscape.org/namespaces/inkscape"
   width="210mm"
   height="297mm"
   id="svg2"
   version="1.1"
   inkscape:version="0.48.2 r9819"
   sodipodi:docname="Letter_A.svg">
  <defs
     id="defs4" />
  <sodipodi:namedview
     id="base"
     pagecolor="#ffffff"
     bordercolor="#666666"
     borderopacity="1.0"
     inkscape:pageopacity="0.0"
     inkscape:pageshadow="2"
     inkscape:zoom="11.2"
     inkscape:cx="58.31717"
     inkscape:cy="1015.5189"
     inkscape:document-units="px"
     inkscape:current-layer="layer1"
     showgrid="false"
     inkscape:window-width="1920"
     inkscape:window-height="1032"
     inkscape:window-x="1280"
     inkscape:window-y="22"
     inkscape:window-maximized="1" />
  <metadata
     id="metadata7">
    <rdf:RDF>
      <cc:Work
         rdf:about="">
        <dc:format>image/svg+xml</dc:format>
        <dc:type
           rdf:resource="http://purl.org/dc/dcmitype/StillImage" />
        <dc:title></dc:title>
      </cc:Work>
    </rdf:RDF>
  </metadata>
  <g
     inkscape:label="Ebene 1"
     inkscape:groupmode="layer"
     id="layer1">
    <flowRoot
       xml:space="preserve"
       id="flowRoot2985"
       style="font-size:40px;font-style:normal;font-weight:normal;line-height:125%;letter-spacing:0px;word-spacing:0px;fill:#000000;fill-opacity:1;stroke:none;font-family:Sans"><flowRegion
         id="flowRegion2987"><rect
           id="rect2989"
           width="222.85715"
           height="131.42857"
           x="205.71428"
           y="440.93362" /></flowRegion><flowPara
         id="flowPara2991"
         style="-inkscape-font-specification:Herculanum;font-family:Herculanum;font-weight:normal;font-style:normal;font-stretch:normal;font-variant:normal;font-size:144px;text-anchor:start;text-align:start;writing-mode:lr;line-height:125%">A</flowPara></flowRoot>    <g
       style="font-size:40px;font-style:normal;font-weight:normal;line-height:125%;letter-spacing:0px;word-spacing:0px;fill:#000000;fill-opacity:1;stroke:none;font-family:Sans"
       id="text2993">
      <path
         d="m 56.788914,40.807991 6.046875,-0.703125 0.773437,-1.546875 c 1.874975,-4.265595 3.515599,-13.148404 -3.470982,-15.13058 2.390595,-3.796836 13.431887,-1.369378 16.33817,-3.43192 3.703085,-2.578078 7.921831,-3.867139 12.65625,-3.867187 2.015574,4.8e-5 3.023385,0.468797 3.023437,1.40625 -5.2e-5,0.468796 -0.609426,2.156294 -1.828125,5.0625 -0.421924,0.984415 -1.640673,3.796913 -3.65625,8.4375 -1.593794,3.609404 -2.484419,5.718777 -2.671875,6.328125 l 5.273438,-0.632813 c 0.0937,2.8e-5 0.187451,0.0469 0.28125,0.140625 0.04683,0.09378 0.0937,0.16409 0.140625,0.210938 l -0.914063,3.375 c -0.187548,0.562523 -0.492235,0.86721 -0.914062,0.914062 l -5.625,0.773438 -0.351563,0.984375 c -1.12504,3.328143 -1.968789,6.070327 -2.53125,8.226562 -0.515663,2.109386 -0.773475,3.796884 -0.773437,5.0625 -3.8e-5,2.250006 0.703086,3.375005 2.109375,3.375 1.171833,5e-6 2.718707,-0.539057 4.640625,-1.617187 2.578077,-1.453118 5.367137,-3.703116 8.367187,-6.75 l 0,5.976562 c -6.046922,4.968752 -11.367229,7.453125 -15.960937,7.453125 -1.640661,0 -2.882847,-0.65625 -3.726563,-1.96875 -0.796908,-1.359372 -1.195345,-2.976558 -1.195312,-4.851562 -3.3e-5,-1.921867 0.234342,-3.960928 0.703125,-6.117188 0.468716,-2.156235 1.35934,-5.17967 2.671875,-9.070312 l -10.335938,1.335937 c -1.500024,3.093767 -2.976585,6.187514 -4.429687,9.28125 -1.875019,3.562507 -3.867205,6.23438 -5.976563,8.015625 -2.718762,2.296876 -5.953134,3.445312 -9.703125,3.445313 -1.406254,-10e-7 -2.320315,-0.187501 -2.742187,-0.5625 -0.375002,-0.421875 -0.562502,-1.335937 -0.5625,-2.742188 -2e-6,-1.031246 0.07031,-1.687495 0.210937,-1.96875 0.140623,-0.32812 0.468748,-0.492182 0.984375,-0.492187 0.140622,5e-6 0.562496,0.04688 1.265625,0.140625 0.749995,0.09376 1.429682,0.14063 2.039063,0.140625 2.671866,5e-6 4.945301,-0.914057 6.820312,-2.742188 2.156235,-2.109365 4.476545,-6.070299 6.960938,-11.882812 l -5.554688,0.632812 c -0.328139,1.9e-5 -0.492202,-0.164043 -0.492187,-0.492187 l 0.632812,-2.460938 c 0.187485,-0.703102 0.351547,-1.148414 0.492188,-1.335937 0.140609,-0.140602 0.468734,-0.257789 0.984375,-0.351563 m 11.039062,-1.335937 9.773438,-1.265625 c 1.218711,-3.093721 2.179648,-5.437469 2.882812,-7.03125 0.56246,-1.265591 1.453084,-3.140589 2.671875,-5.625 0.515582,-0.937461 0.914019,-1.664022 1.195313,-2.179688 0.281206,-0.515583 0.656205,-1.19527 1.125,-2.039062 -4.5e-5,-0.140582 -0.07036,-0.281207 -0.210938,-0.421875 -0.140669,-0.140582 -0.328169,-0.210894 -0.5625,-0.210938 -0.703168,4.4e-5 -1.71098,0.328168 -3.023437,0.984375 -1.31254,0.656292 -2.531289,1.453166 -3.65625,2.390625 -1.687536,1.265664 -3.281285,3.023475 -4.78125,5.273438 -1.453157,2.250032 -3.257842,5.625029 -5.414063,10.125"
         style="font-size:72px;font-variant:normal;font-stretch:normal;text-align:start;line-height:125%;writing-mode:lr-tb;text-anchor:start;font-family:PilGi;-inkscape-font-specification:PilGi"
         id="path3017"
         inkscape:connector-curvature="0"
         sodipodi:nodetypes="cccccccccccccccccccscccscccccccscsccccccccccccccccccccccc" />
    </g>
  </g>
</svg>
